HIERARCHY
ROOT Hips
{
	OFFSET 0.000000 0.000000 0.000000 
	CHANNELS 6 Xposition Yposition Zposition Zrotation Yrotation Xrotation
	JOINT LeftUpLeg
	{
		OFFSET 1.363060 -1.794630 0.839290 
		CHANNELS 3 Zrotation Yrotation Xrotation
		JOINT LeftLeg
		{
			OFFSET 2.448110 -6.726130 0.000000 
			CHANNELS 3 Zrotation Yrotation Xrotation
			JOINT LeftFoot
			{
				OFFSET 2.562200 -7.039590 0.000000 
				CHANNELS 3 Zrotation Yrotation Xrotation
				JOINT LeftToeBase
				{
					OFFSET 0.157640 -0.433110 2.322550 
					CHANNELS 3 Zrotation Yrotation Xrotation
					End Site
					{
						OFFSET 0.000000 0.000000 0.000000 
					}
				}
			}
		}
	}
	JOINT RightUpLeg
	{
		OFFSET -1.305520 -1.794630 0.839290 
		CHANNELS 3 Zrotation Yrotation Xrotation
		JOINT RightLeg
		{
			OFFSET -2.542530 -6.985550 0.000000 
			CHANNELS 3 Zrotation Yrotation Xrotation
			JOINT RightFoot
			{
				OFFSET -2.568260 -7.056230 0.000000 
				CHANNELS 3 Zrotation Yrotation Xrotation
				JOINT RightToeBase
				{
					OFFSET -0.164730 -0.452590 2.363150 
					CHANNELS 3 Zrotation Yrotation Xrotation
					End Site
					{
						OFFSET 0.000000 0.000000 0.000000 
					}
				}
			}
		}
	}
	JOINT Spine
	{
		OFFSET 0.028270 2.035590 -0.193380 
		CHANNELS 3 Zrotation Yrotation Xrotation
		JOINT Spine1
		{
			OFFSET 0.056720 2.048850 -0.042750 
			CHANNELS 3 Zrotation Yrotation Xrotation
			JOINT Neck1
			{
				OFFSET -0.054170 1.746240 0.172020 
				CHANNELS 3 Zrotation Yrotation Xrotation
				JOINT Head
				{
					OFFSET 0.104070 1.761360 -0.123970 
					CHANNELS 3 Zrotation Yrotation Xrotation
					End Site
					{
						OFFSET 0.000000 0.000000 0.000000 
					}
				}
			}
			JOINT LeftArm
			{
				OFFSET 3.362410 1.200890 -0.311210 
				CHANNELS 3 Zrotation Yrotation Xrotation
				JOINT LeftForeArm
				{
					OFFSET 4.983000 -0.000000 -0.000000 
					CHANNELS 3 Zrotation Yrotation Xrotation
					JOINT LeftHand
					{
						OFFSET 3.483560 -0.000000 -0.000000 
						CHANNELS 3 Zrotation Yrotation Xrotation
						JOINT LeftHandIndex1
						{
							OFFSET 0.715260 -0.000000 -0.000000 
							CHANNELS 3 Zrotation Yrotation Xrotation
							End Site
							{
								OFFSET 0.000000 0.000000 0.000000 
							}
						}
					}
				}
			}
			JOINT RightArm
			{
				OFFSET -3.136600 1.374050 -0.404650 
				CHANNELS 3 Zrotation Yrotation Xrotation
				JOINT RightForeArm
				{
					OFFSET -5.241900 -0.000000 -0.000000 
					CHANNELS 3 Zrotation Yrotation Xrotation
					JOINT RightHand
					{
						OFFSET -3.444170 -0.000000 -0.000000 
						CHANNELS 3 Zrotation Yrotation Xrotation
						JOINT RightHandIndex1
						{
							OFFSET -0.622530 -0.000000 -0.000000 
							CHANNELS 3 Zrotation Yrotation Xrotation
							End Site
							{
								OFFSET 0.000000 0.000000 0.000000 
							}
						}
					}
				}
			}
		}
	}
}
MOTION
Frames: 13
Frame Time: 0.041667
11.307481 18.108351 -45.017364 -3.292813 -1.311507 2.191226 -9.024058 -15.479055 -13.234963 -1.066317 10.074996 27.849617 -2.421737 9.364497 1.598527 1.060500 -6.547600 -18.381700 32.109386 21.535298 0.370406 2.873857 -6.943107 21.425965 7.419599 -26.395317 -15.935255 -0.085400 -1.884800 5.187400 3.007550 1.253799 12.378097 -3.825277 1.058149 -6.819157 11.448911 -1.570584 -9.152666 2.098100 -1.679100 -2.766600 -89.519878 -1.749619 8.932226 23.012119 -23.325128 -5.976031 2.001794 0.931920 15.728154 -7.125000 0.000000 0.000000 86.429322 4.373570 33.988219 -20.988495 23.808156 -5.826957 1.347266 0.364151 17.401563 7.125000 0.000000 0.000000 
11.302642 18.108469 -45.034123 -3.322068 -1.457637 2.276922 -8.956698 -15.374366 -13.342452 -1.074566 10.059310 27.788145 -2.451356 9.434142 1.675469 1.116700 -6.713100 -18.868200 32.095027 21.645202 0.222901 2.866770 -6.966882 21.432329 7.455691 -26.457173 -15.712712 -0.075200 -1.768700 4.867000 3.211043 1.201869 12.274983 -3.755346 1.040580 -6.791319 11.198255 -1.410696 -9.506303 2.021200 -1.619100 -2.964900 -89.559064 -2.124137 9.027029 23.165376 -23.503778 -6.055110 1.956828 0.974279 15.227027 -7.125000 0.000000 0.000000 86.296981 4.561470 33.665028 -21.209936 24.089115 -5.946965 1.327777 0.412876 16.363095 7.125000 0.000000 0.000000 
11.298865 18.103984 -45.044273 -3.378105 -1.646330 2.086762 -8.941324 -15.202121 -13.212504 -1.067213 10.043658 27.794028 -2.449173 9.427928 1.733361 1.190000 -6.922400 -19.485500 32.217570 21.607899 0.390853 2.856235 -6.967188 21.458739 7.437705 -26.396763 -15.597694 -0.067500 -1.676200 4.611500 3.483895 1.167237 12.271973 -3.652702 1.038113 -6.881998 11.015673 -1.263388 -9.656471 1.974900 -1.551000 -3.088800 -89.677374 -2.372331 9.151054 23.377735 -23.751515 -6.165387 1.891670 1.028900 14.647402 -7.125000 0.000000 0.000000 86.132080 4.599366 33.612281 -21.151813 23.979720 -5.855650 1.346536 0.355421 16.958777 7.125000 0.000000 0.000000 
11.292610 18.102804 -45.050883 -3.447758 -1.787469 2.012896 -8.890816 -15.061443 -13.173149 -1.065875 10.025346 27.776884 -2.429155 9.382443 1.733513 1.216200 -6.995400 -19.701600 32.296608 21.565768 0.437770 2.855268 -6.966739 21.470679 7.360328 -26.189617 -15.589653 -0.069000 -1.695200 4.664200 3.952344 1.034968 12.264447 -3.469819 0.999043 -6.834705 10.975684 -1.092038 -9.670386 2.026900 -1.454800 -3.141700 -89.947783 -2.790344 9.110548 23.563422 -23.947867 -6.236748 1.821294 1.071174 14.229852 -7.125000 0.000000 0.000000 85.765306 4.651469 33.750372 -21.098984 23.911385 -5.841836 1.358669 0.319109 17.221476 7.125000 0.000000 0.000000 
11.285883 18.103040 -45.057728 -3.420977 -1.889347 1.917470 -8.903112 -15.038861 -13.086873 -1.074409 10.003439 27.744061 -2.402642 9.321014 1.682687 1.204600 -6.963300 -19.606700 32.287716 21.487876 0.453144 2.845774 -6.973683 21.514142 7.297542 -26.002844 -15.553525 -0.071800 -1.728600 4.756200 3.997202 0.992914 12.738606 -3.392259 0.991252 -6.518132 10.817446 -1.079039 -9.498440 1.916500 -1.435000 -2.943500 -89.732820 -3.826661 9.446339 23.749101 -24.122140 -6.301045 1.761890 1.102174 13.776647 -7.125000 0.000000 0.000000 85.648749 5.437582 33.418586 -21.061353 23.863194 -5.838364 1.369292 0.311264 17.194970 7.125000 0.000000 0.000000 
11.281988 18.104103 -45.063747 -3.330441 -1.926305 1.797702 -9.000929 -15.106988 -12.923237 -1.090850 9.979591 27.694551 -2.454349 9.428813 1.651504 1.229200 -7.031400 -19.808600 32.168270 21.227954 0.409888 2.830844 -6.987638 21.580247 7.225853 -25.766687 -15.462776 -0.083800 -1.867000 5.138300 3.995353 0.955258 12.630875 -3.337525 0.965333 -6.781142 10.510435 -1.107276 -9.214508 1.729500 -1.435400 -2.806900 -89.641226 -4.035087 9.742971 24.016808 -24.417190 -6.428078 1.695427 1.137237 13.233691 -7.125000 0.000000 0.000000 85.720304 5.608731 32.978278 -20.971425 23.758931 -5.799849 1.374603 0.298068 17.446212 7.125000 0.000000 0.000000 
11.269596 18.101152 -45.092545 -3.287972 -1.675457 1.799251 -8.945223 -15.105072 -13.013286 -1.109221 9.954493 27.584642 -2.405526 9.335411 1.993568 1.284500 -7.181800 -20.255100 32.157740 21.063958 0.251750 2.828092 -7.008535 21.616447 7.243575 -25.832871 -15.517475 -0.088500 -1.919200 5.282400 3.800081 0.775008 12.015352 -3.396296 0.837649 -7.564205 10.315775 -1.092552 -8.836978 1.560600 -1.417400 -2.688200 -89.389703 -3.848073 9.985611 24.296870 -24.731706 -6.558716 1.610299 1.177852 12.628227 -7.125000 0.000000 0.000000 86.093591 5.429133 32.677661 -20.938255 23.736214 -5.788856 1.368191 0.301577 17.704086 7.125000 0.000000 0.000000 
11.261216 18.096431 -45.105173 -3.346141 -1.680199 1.698094 -8.848081 -15.139703 -12.930499 -1.122944 9.914959 27.483489 -2.443542 9.422971 2.126984 1.299200 -7.221200 -20.372400 32.304976 21.066716 0.332052 2.825754 -7.008985 21.620718 7.270532 -25.923791 -15.500096 -0.077900 -1.799900 4.953000 3.802954 0.739083 12.200274 -3.400457 0.820337 -7.375615 10.197805 -1.040332 -9.062636 1.498200 -1.409800 -2.807300 -89.139783 -4.442143 10.352899 24.398823 -24.832488 -6.596730 1.632622 1.150410 12.253721 -7.125000 0.000000 0.000000 86.185421 5.763823 32.284442 -20.870723 23.659855 -5.769703 1.372330 0.301655 17.942169 7.125000 0.000000 0.000000 
11.255551 18.094071 -45.105763 -3.433329 -1.803298 1.556357 -8.790620 -15.303731 -12.666979 -1.141672 9.867102 27.377103 -2.620217 9.802066 2.032888 1.346200 -7.345500 -20.743100 32.471475 21.117675 0.532956 2.826101 -6.999379 21.616292 7.244158 -25.871403 -15.512096 -0.089200 -1.926700 5.303000 4.101813 0.768486 12.020892 -3.287404 0.845040 -7.497173 10.096197 -0.989978 -9.151115 1.478300 -1.389900 -2.942800 -89.184046 -4.579055 10.613025 24.476658 -24.911611 -6.639436 1.575053 1.189223 11.987463 -7.125000 0.000000 0.000000 86.118031 5.638405 31.956566 -20.745606 23.518337 -5.720804 1.376250 0.290475 18.270030 7.125000 0.000000 0.000000 
11.252364 18.092418 -45.102223 -3.421372 -1.869910 1.428920 -8.822887 -15.678518 -12.298506 -1.180628 9.801258 27.214220 -2.867299 10.328310 1.839089 1.438700 -7.583300 -21.455500 32.510268 21.133006 0.683744 2.821786 -6.992983 21.617071 7.245081 -25.861327 -15.442630 -0.094800 -1.985600 5.465800 4.171441 0.753039 12.056761 -3.244666 0.840569 -7.375298 10.040865 -0.875130 -9.365901 1.461500 -1.349000 -3.104600 -89.147577 -4.920128 10.757802 24.570660 -25.014183 -6.685372 1.561805 1.193466 11.770210 -7.125000 0.000000 0.000000 86.176422 5.736107 31.640087 -20.688941 23.458307 -5.712405 1.379507 0.289341 18.303935 7.125000 0.000000 0.000000 
11.250122 18.091946 -45.099390 -3.323564 -1.903983 1.315358 -8.920498 -16.125258 -11.908774 -1.238656 9.713245 26.989290 -3.050868 10.715883 1.681022 1.461600 -7.640900 -21.628600 32.433325 21.120084 0.756227 2.809895 -7.002346 21.657770 7.276808 -25.927821 -15.396335 -0.089000 -1.924500 5.297000 4.095972 0.633161 12.379636 -3.234823 0.780513 -7.179643 10.174155 -0.775140 -9.154826 1.490800 -1.287000 -2.924600 -89.028504 -5.733632 10.777728 24.695161 -25.143958 -6.736281 1.557498 1.188866 11.631703 -7.125000 0.000000 0.000000 86.217947 6.319935 31.406444 -20.637394 23.397255 -5.705753 1.386415 0.290006 18.255999 7.125000 0.000000 0.000000 
11.247289 18.093834 -45.100216 -3.190719 -1.933677 1.206973 -9.031183 -16.580278 -11.483428 -1.309094 9.607189 26.729189 -3.081801 10.770696 1.538559 1.208000 -6.972600 -19.634200 32.326972 21.115928 0.829519 2.796548 -7.025458 21.751390 7.236688 -25.832343 -15.557717 -0.105300 -2.092200 5.760500 3.958959 0.624406 12.237536 -3.232235 0.763494 -7.313676 10.275051 -0.770584 -9.101773 1.511500 -1.289400 -2.959300 -88.869483 -5.953823 10.943477 24.759204 -25.236267 -6.793622 1.550750 1.202292 11.492042 -7.125000 0.000000 0.000000 86.469708 6.310011 30.899351 -20.477342 23.239686 -5.684193 1.381585 0.311012 18.628925 7.125000 0.000000 0.000000 
11.244338 18.097257 -45.102459 -3.032182 -1.911569 1.159448 -9.167629 -17.090169 -11.073947 -1.388654 9.492468 26.429346 -3.195051 11.003323 1.357820 1.011300 -6.398600 -17.945500 32.146341 21.087302 0.795416 2.775766 -7.066249 21.872627 7.206006 -25.740391 -15.633105 -0.116400 -2.199800 6.058200 3.968478 0.617087 12.127170 -3.116558 0.759449 -7.403360 10.217707 -0.822821 -8.898037 1.455000 -1.307400 -2.897400 -88.809359 -6.320326 11.174529 24.813358 -25.278338 -6.803859 1.573602 1.175244 11.359342 -7.125000 0.000000 0.000000 86.536743 6.390309 30.379271 -20.250424 22.946151 -5.553418 1.400936 0.265264 19.203311 7.125000 0.000000 0.000000 
